<svg xmlns="http://www.w3.org/2000/svg" width="28.332" height="31.434" viewBox="0 0 28.332 31.434"><defs><style>.a{fill:#3b3b3b;}</style></defs><g transform="translate(0 0)"><path class="a" d="M31.1,34.662a7.25,7.25,0,0,1-9.869,0A14.036,14.036,0,0,0,12,47.786a.708.708,0,0,0,.708.708H39.624a.708.708,0,0,0,.708-.708A14.036,14.036,0,0,0,31.1,34.662Z" transform="translate(-12 -17.059)"/><path class="a" d="M35.8,21.595c-.174-3.885-3-6.987-6.459-6.987s-6.285,3.1-6.459,6.987c.006,0,.012,0,.018,0a4.571,4.571,0,0,0,.961.1,5.687,5.687,0,0,0,4.866-3.036.736.736,0,0,1,1.227,0,5.687,5.687,0,0,0,4.866,3.036,4.571,4.571,0,0,0,.961-.1C35.787,21.594,35.793,21.6,35.8,21.595Z" transform="translate(-15.174 -11.21)"/><path class="a" d="M29.364,22.62a6.919,6.919,0,0,1-5.48,2.825,6.164,6.164,0,0,1-.921-.074c.455,3.557,3.148,6.3,6.4,6.3s5.945-2.744,6.4-6.3a6.164,6.164,0,0,1-.921.074A6.919,6.919,0,0,1,29.364,22.62Z" transform="translate(-15.198 -13.547)"/><path class="a" d="M20.393,24.918h.184a9.43,9.43,0,0,1-1.041-4.349,9.8,9.8,0,0,1,.333-2.522l.007-.007a8.3,8.3,0,0,1,.4-1.183c1.232-3.407,4-5.631,7.147-5.631s5.914,2.224,7.147,5.631a8.3,8.3,0,0,1,.4,1.183l.007.007a9.8,9.8,0,0,1,.333,2.522,9.43,9.43,0,0,1-1.041,4.349h.184a4.069,4.069,0,0,0,4.016-3.379,1.339,1.339,0,0,1,.751.361c.078.085.3.34.078.97-.645,1.856-2.72,2.84-4.3,3.109a.71.71,0,0,0,.12,1.41.78.78,0,0,0,.127-.014c2.047-.354,4.54-1.6,5.39-4.037a2.278,2.278,0,0,0-.368-2.387,2.836,2.836,0,0,0-1.82-.843,4.1,4.1,0,0,0-1.112-2.1,4.161,4.161,0,0,0-1.169-.793c-1.247-4.441-4.746-7.409-8.748-7.409s-7.5,2.975-8.748,7.416a4.106,4.106,0,0,0-1.183.8,4.042,4.042,0,0,0,2.9,6.892Z" transform="translate(-13.26 -9.81)"/></g></svg>