<svg xmlns="http://www.w3.org/2000/svg" width="23" height="23" viewBox="0 0 23 23"><defs><style>.a{fill:#fff;}</style></defs><g transform="translate(-3.4 -4.8)"><path class="a" d="M21.335,16.7a5.935,5.935,0,1,0,5.935,5.935A5.947,5.947,0,0,0,21.335,16.7Zm0,9.738a3.8,3.8,0,1,1,3.8-3.8A3.82,3.82,0,0,1,21.335,26.438Z" transform="translate(-6.435 -6.382)"/><circle class="a" cx="1.345" cy="1.345" r="1.345" transform="translate(19.723 8.834)"/><path class="a" d="M24.545,6.7a6.6,6.6,0,0,0-4.869-1.9H10.124A6.352,6.352,0,0,0,3.4,11.524V21.03a6.672,6.672,0,0,0,1.948,4.962A6.767,6.767,0,0,0,10.17,27.8h9.46A6.847,6.847,0,0,0,24.5,25.992a6.639,6.639,0,0,0,1.9-4.915V11.524A6.647,6.647,0,0,0,24.545,6.7ZM24.36,21.076a4.531,4.531,0,0,1-1.345,3.385,4.793,4.793,0,0,1-3.385,1.206H10.17a4.793,4.793,0,0,1-3.385-1.206A4.661,4.661,0,0,1,5.533,21.03V11.524A4.623,4.623,0,0,1,6.785,8.139,4.716,4.716,0,0,1,10.17,6.933h9.552a4.623,4.623,0,0,1,3.385,1.252,4.785,4.785,0,0,1,1.252,3.339v9.552Z"/></g></svg>