<svg xmlns="http://www.w3.org/2000/svg" width="23.222" height="23.22" viewBox="0 0 23.222 23.22"><defs><style>.a{fill:#fff;}</style></defs><g transform="translate(94.909 382.909)"><path class="a" d="M-71.791-364.4l-.114-.347a3.267,3.267,0,0,0-2-1.886l-3.051-.833a2.987,2.987,0,0,0-2.612.683l-1.1,1.1a11.718,11.718,0,0,1-8.244-8.244l1.1-1.1a2.991,2.991,0,0,0,.684-2.612l-.832-3.053a3.263,3.263,0,0,0-1.888-2l-.348-.117a2.77,2.77,0,0,0-2.58.608l-1.651,1.653a3.066,3.066,0,0,0-.484,1.136A19.5,19.5,0,0,0-89.2-365.4a19.513,19.513,0,0,0,13.964,5.71,3.062,3.062,0,0,0,1.186-.479l1.651-1.652a2.768,2.768,0,0,0,.607-2.579Z" transform="translate(0 0)"/></g></svg>