<svg xmlns="http://www.w3.org/2000/svg" width="30.184" height="31.815" viewBox="0 0 30.184 31.815"><defs><style>.a{fill:#3b3b3b;}</style></defs><path class="a" d="M29.4,28.409A1.06,1.06,0,0,0,28.58,28H22.75v3.263a2.719,2.719,0,0,1-5.439,0V28H11.873v3.263a2.719,2.719,0,0,1-5.439,0V28H.6a1.06,1.06,0,0,0-.824.409,1.311,1.311,0,0,0-.273.954L1.464,48.335A3.761,3.761,0,0,0,5.022,52.2H24.163a3.761,3.761,0,0,0,3.558-3.867l1.957-18.972A1.312,1.312,0,0,0,29.4,28.409Z" transform="translate(0.5 -20.386)"/><path class="a" d="M32.088,11.965a1.089,1.089,0,0,0,1.088-1.088V4.895c0-1.68,1.694-2.719,3.263-2.719h2.719a2.548,2.548,0,0,1,2.719,2.719v5.982a1.088,1.088,0,1,0,2.175,0V4.895A4.734,4.734,0,0,0,39.158,0H36.439A5.194,5.194,0,0,0,31,4.895v5.982A1.089,1.089,0,0,0,32.088,11.965Z" transform="translate(-22.434)"/></svg>