<svg xmlns="http://www.w3.org/2000/svg" width="28.302" height="23" viewBox="0 0 28.302 23"><defs><style>.a{fill:#fff;}</style></defs><path class="a" d="M31.876,13.049a11.553,11.553,0,0,1-3.335.914,5.817,5.817,0,0,0,2.553-3.213,11.623,11.623,0,0,1-3.687,1.41,5.811,5.811,0,0,0-9.894,5.3A16.487,16.487,0,0,1,5.545,11.389a5.814,5.814,0,0,0,1.8,7.752,5.79,5.79,0,0,1-2.63-.727c0,.024,0,.049,0,.074a5.811,5.811,0,0,0,4.658,5.693,5.838,5.838,0,0,1-1.53.2,5.753,5.753,0,0,1-1.093-.1,5.813,5.813,0,0,0,5.424,4.032,11.717,11.717,0,0,1-8.6,2.4,16.431,16.431,0,0,0,8.9,2.609C23.156,33.326,29,24.479,29,16.805q0-.377-.016-.752A11.76,11.76,0,0,0,31.876,13.049Z" transform="translate(-3.574 -10.326)"/></svg>