<svg xmlns="http://www.w3.org/2000/svg" width="23" height="23" viewBox="0 0 23 23"><defs><style>.a{fill:#fff;}</style></defs><g transform="translate(-5 -5.406)"><path class="a" d="M28,16.61a11.31,11.31,0,0,1-16.749,9.81L5,28.406l2.038-6.011a11.086,11.086,0,0,1-1.62-5.785A11.291,11.291,0,0,1,28,16.61M16.709,7.19a9.467,9.467,0,0,0-9.493,9.42,9.321,9.321,0,0,0,1.808,5.523l-1.186,3.5,3.648-1.159A9.444,9.444,0,1,0,16.709,7.19m5.7,12c-.07-.114-.254-.183-.531-.32s-1.638-.8-1.891-.893-.439-.138-.623.137-.715.893-.877,1.076-.323.207-.6.069A7.573,7.573,0,0,1,15.664,17.9a8.28,8.28,0,0,1-1.54-1.9c-.161-.275-.017-.423.121-.56s.277-.321.415-.481a1.841,1.841,0,0,0,.277-.458.5.5,0,0,0-.023-.481c-.069-.137-.623-1.489-.854-2.038s-.461-.458-.623-.458-.346-.023-.531-.023a1.021,1.021,0,0,0-.738.343,3.071,3.071,0,0,0-.968,2.291,5.316,5.316,0,0,0,1.13,2.84,11.314,11.314,0,0,0,4.728,4.146c2.814,1.1,2.814.732,3.321.686A2.8,2.8,0,0,0,22.249,20.5a2.289,2.289,0,0,0,.161-1.306"/></g></svg>