<svg xmlns="http://www.w3.org/2000/svg" width="24.302" height="23" viewBox="0 0 24.302 23"><defs><style>.a{fill:#fff;}</style></defs><g transform="translate(-22 -22.4)"><path class="a" d="M41.441,45.4V35.853a2.529,2.529,0,0,0-2.43-1.909c-1.909.087-2.517.391-3.385,1.432V45.4h-4.9V30.255h4.86v2.213a5.4,5.4,0,0,1,4.86-2.864c2.994.217,5.251,2.04,5.728,6.032h.13V45.4ZM24.908,28.3a2.951,2.951,0,1,1,2.908-2.951A2.917,2.917,0,0,1,24.908,28.3Zm2.43,17.1h-4.86V30.255h4.86Z" transform="translate(0 0)"/></g></svg>