<svg xmlns="http://www.w3.org/2000/svg" width="203" height="61.114" viewBox="0 0 203 61.114"><defs><style>.a{fill:#fff;fill-rule:evenodd;}</style></defs><g transform="translate(-163.5 -263.1)"><path class="a" d="M300.982,326.653c-11.753,8.69-28.847,13.32-43.592,13.32a79.037,79.037,0,0,1-53.279-20.3c-1.068-1-.142-2.351,1.211-1.567a105.824,105.824,0,0,0,93.95,5.769C301.267,323.091,302.905,325.228,300.982,326.653Z" transform="translate(-11.551 -15.759)"/><path class="a" d="M341.251,320.174c-1.5-1.923-9.972-.926-13.747-.427-1.14.142-1.353-.855-.285-1.567,6.767-4.772,17.807-3.348,19.089-1.781s-.356,12.679-6.7,17.949c-1,.784-1.923.356-1.5-.712C339.541,330.074,342.747,322.168,341.251,320.174Z" transform="translate(-46.905 -14.907)"/><path class="a" d="M280.813,269.8v-4.63a1.084,1.084,0,0,1,1.14-1.14h20.656a1.187,1.187,0,0,1,1.211,1.14v3.918c0,.641-.57,1.5-1.567,2.92l-10.684,15.243a23.205,23.205,0,0,1,11.753,2.493,2.122,2.122,0,0,1,1.068,1.781v4.915c0,.712-.712,1.5-1.5,1.068a23.563,23.563,0,0,0-21.8.071,1.118,1.118,0,0,1-1.5-1.068v-4.7a5.323,5.323,0,0,1,.784-3.134l12.394-17.736H282.024a1.187,1.187,0,0,1-1.211-1.14Zm-75.288,28.7h-6.268a1.286,1.286,0,0,1-1.14-1.068v-32.2a1.187,1.187,0,0,1,1.211-1.14h5.841a1.161,1.161,0,0,1,1.14,1.068v4.2h.142c1.5-4.06,4.416-5.983,8.262-5.983,3.918,0,6.411,1.923,8.12,5.983a8.927,8.927,0,0,1,8.69-5.983,8.829,8.829,0,0,1,7.265,3.561c1.994,2.707,1.567,6.624,1.567,10.114v20.371a1.187,1.187,0,0,1-1.211,1.14h-6.2a1.224,1.224,0,0,1-1.14-1.14V280.337a42.719,42.719,0,0,0-.142-6.054c-.5-2.137-1.852-2.778-3.7-2.778a4.194,4.194,0,0,0-3.775,2.635c-.641,1.638-.57,4.345-.57,6.2v17.095a1.187,1.187,0,0,1-1.211,1.14h-6.268a1.224,1.224,0,0,1-1.14-1.14V280.337c0-3.561.57-8.9-3.846-8.9-4.487,0-4.345,5.128-4.345,8.9v17.095a1.251,1.251,0,0,1-1.282,1.068Zm116.1-35.115c9.331,0,14.388,7.978,14.388,18.163,0,9.829-5.556,17.665-14.388,17.665-9.117,0-14.1-7.978-14.1-17.949-.071-10.043,4.986-17.878,14.1-17.878Zm0,6.624c-4.63,0-4.915,6.339-4.915,10.257s-.071,12.322,4.844,12.322c4.843,0,5.128-6.767,5.128-10.9a31.169,31.169,0,0,0-.926-8.547,3.938,3.938,0,0,0-4.131-3.134ZM348.052,298.5h-6.268a1.224,1.224,0,0,1-1.14-1.14V265.094a1.231,1.231,0,0,1,1.211-1.068H347.7a1.218,1.218,0,0,1,1.14.926v4.915h.142c1.781-4.416,4.2-6.482,8.547-6.482a8.3,8.3,0,0,1,7.336,3.775c1.638,2.564,1.638,6.909,1.638,10.043v20.3a1.172,1.172,0,0,1-1.211,1h-6.268a1.3,1.3,0,0,1-1.14-1V279.981c0-3.561.427-8.69-3.918-8.69a4.123,4.123,0,0,0-3.633,2.564,14.787,14.787,0,0,0-1,6.126v17.38a1.3,1.3,0,0,1-1.282,1.14Zm-83.693-15.385c0,2.422.071,4.487-1.14,6.7a5.041,5.041,0,0,1-4.345,2.849c-2.422,0-3.846-1.852-3.846-4.559,0-5.342,4.772-6.339,9.331-6.339Zm6.339,15.314a1.288,1.288,0,0,1-1.5.142,15.728,15.728,0,0,1-3.633-4.2c-3.419,3.49-5.912,4.559-10.328,4.559-5.271,0-9.4-3.277-9.4-9.758a10.662,10.662,0,0,1,6.7-10.257c3.419-1.5,8.191-1.781,11.824-2.208v-.784c0-1.5.142-3.276-.784-4.559a4.218,4.218,0,0,0-3.49-1.638c-2.422,0-4.559,1.211-5.057,3.775-.142.57-.5,1.14-1.068,1.14L247.905,274a1.1,1.1,0,0,1-.926-1.282c1.425-7.408,8.049-9.616,14.032-9.616,3.063,0,7.052.784,9.473,3.134,3.063,2.849,2.778,6.7,2.778,10.827v9.758c0,2.92,1.211,4.2,2.351,5.841.427.57.5,1.282,0,1.638-1.353,1.068-3.633,3.063-4.915,4.131Zm-88.608-15.314c0,2.422.071,4.487-1.14,6.7a5.041,5.041,0,0,1-4.345,2.849c-2.422,0-3.846-1.852-3.846-4.559,0-5.342,4.772-6.339,9.331-6.339Zm6.268,15.314a1.288,1.288,0,0,1-1.5.142,15.728,15.728,0,0,1-3.633-4.2c-3.419,3.49-5.912,4.559-10.328,4.559-5.271,0-9.4-3.277-9.4-9.758a10.662,10.662,0,0,1,6.7-10.257c3.419-1.5,8.191-1.781,11.824-2.208v-.784c0-1.5.142-3.276-.784-4.559a4.218,4.218,0,0,0-3.49-1.638c-2.422,0-4.559,1.211-5.057,3.775-.142.57-.5,1.14-1.068,1.14L165.566,274a1.1,1.1,0,0,1-.926-1.282c1.425-7.408,8.049-9.616,14.032-9.616,3.063,0,7.052.784,9.473,3.134,3.063,2.849,2.778,6.7,2.778,10.827v9.758c0,2.92,1.211,4.2,2.351,5.841.427.57.5,1.282,0,1.638-1.353,1.068-3.633,3.063-4.915,4.131Z"/></g></svg>