<svg xmlns="http://www.w3.org/2000/svg" width="178.154" height="178" viewBox="0 0 178.154 178"><defs><style>.a{fill:#fff;fill-rule:evenodd;}.b{fill:none;}</style></defs><g transform="translate(-0.387 -0.818)"><g transform="translate(0.387 60.455)"><path class="a" d="M299.8,792.817H279.012v6.169h14.743c-.728,8.65-7.925,12.339-14.718,12.339a16.476,16.476,0,0,1,.019-32.951,16,16,0,0,1,11.115,4.458l4.319-4.473a21.959,21.959,0,0,0-15.655-6.172,22.663,22.663,0,1,0,.328,45.32c12.132,0,21.013-8.311,21.013-20.6a18.494,18.494,0,0,0-.376-4.091v0Z" transform="translate(-255.999 -772.188)"/><path class="a" d="M668.934,917.251c4.195,0,8.17,3.391,8.17,8.856,0,5.349-3.958,8.837-8.189,8.837-4.649,0-8.316-3.723-8.316-8.879,0-5.046,3.622-8.814,8.335-8.814Zm-.085-5.721a14.566,14.566,0,1,0,14.616,14.616c0-9.648-7.6-14.616-14.616-14.616Z" transform="translate(-608.019 -895.368)"/><path class="a" d="M943.508,917.251c4.2,0,8.17,3.391,8.17,8.856,0,5.349-3.958,8.837-8.189,8.837-4.648,0-8.316-3.723-8.316-8.879,0-5.046,3.622-8.814,8.335-8.814Zm-.085-5.721a14.566,14.566,0,1,0,14.616,14.616C958.039,916.5,950.435,911.529,943.423,911.529Z" transform="translate(-850.747 -895.368)"/><path class="a" d="M1218.327,917.37c3.839,0,7.78,3.278,7.78,8.875,0,5.689-3.933,8.825-7.865,8.825-4.174,0-8.058-3.389-8.058-8.771,0-5.592,4.034-8.929,8.143-8.929Zm-.567-5.71c-7.829,0-13.984,6.858-13.984,14.554a14.369,14.369,0,0,0,13.849,14.582,9.625,9.625,0,0,0,7.989-3.539v2.872c0,5.025-3.052,8.035-7.658,8.035a8.077,8.077,0,0,1-7.456-5.186l-5.6,2.34c1.986,4.2,5.984,8.578,13.1,8.578,7.785,0,13.718-4.9,13.718-15.187V912.536h-6.107V915a10.3,10.3,0,0,0-7.854-3.343Z" transform="translate(-1093.847 -895.484)"/><path class="a" d="M1575.52,916.962a5.808,5.808,0,0,1,5.39,3.111l-13.043,5.452C1567.3,921.3,1571.3,916.962,1575.52,916.962Zm-.255-5.6c-7.385,0-13.586,5.876-13.586,14.547,0,9.174,6.911,14.616,14.3,14.616a14.78,14.78,0,0,0,12.2-6.392l-5.036-3.35a8.151,8.151,0,0,1-7.136,4.01,7.493,7.493,0,0,1-7.144-4.415l19.531-8.1-1.014-2.375a13.189,13.189,0,0,0-12.113-8.535Z" transform="translate(-1410.239 -895.218)"/><path class="a" d="M1481.4,828.108h6.415V785.174H1481.4Z" transform="translate(-1339.271 -783.668)"/></g><rect class="b" width="178" height="178" transform="translate(0.541 0.818)"/></g></svg>