<svg xmlns="http://www.w3.org/2000/svg" width="217.074" height="39.307" viewBox="0 0 217.074 39.307"><defs><style>.a{fill:#fff;fill-rule:evenodd;}</style></defs><g transform="translate(-2.834 -79.439)"><path class="a" d="M31.662,111.433v4.61H2.834V84.34h5.19v27.092ZM27.627,95.869l5.764-10.953H27.915L23.59,95.869h4.037Zm47.132-6.325a20.587,20.587,0,0,0-7.814-7.1,23.092,23.092,0,0,0-21.228,0,20.59,20.59,0,0,0-7.816,7.1,17.984,17.984,0,0,0,0,19.519,20.582,20.582,0,0,0,7.816,7.1,23.092,23.092,0,0,0,21.228,0,20.587,20.587,0,0,0,7.814-7.1,17.984,17.984,0,0,0,0-19.519Zm-4.486,17.524a15.726,15.726,0,0,1-5.844,5.581,16.587,16.587,0,0,1-15.921,0,15.735,15.735,0,0,1-5.844-5.581,14.694,14.694,0,0,1,0-15.29,15.723,15.723,0,0,1,5.844-5.58,16.579,16.579,0,0,1,15.921,0,15.714,15.714,0,0,1,5.844,5.58,14.688,14.688,0,0,1,0,15.29Zm43.553-9.056a8.713,8.713,0,0,1-4.1,3.981,6.6,6.6,0,0,1-3.4.938l10.09,13.113h-5.765l-9.758-12.681H88.163v12.681H82.974V84.34h20.755a12.385,12.385,0,0,1,6.1,1.469A8.958,8.958,0,0,1,114.1,90.74a10.669,10.669,0,0,1-.272,7.271Zm-5.8-.217a5.015,5.015,0,0,0,1.684-3.948,5.532,5.532,0,0,0-1.9-3.91,5.618,5.618,0,0,0-3.786-.985H88.163v9.8h15.855a5.994,5.994,0,0,0,4-.956Zm35.78.092v4.322H126.216v9.224h23.638v4.61H121.026V84.34h28.828v4.611H126.216v8.935Zm.288-18.447H136.3l-3.17,4.035Zm15.929,28.534-4.111,8.07H150.72l16.142-31.7h5.19l16.144,31.7h-5.19l-4.109-8.07H160.018Zm9.438-18.538-7.385,14.5h14.77l-7.385-14.5Zm50.16,22v4.61H190.79V84.34h5.188v27.092ZM217.37,90.7l-.045-.757a1.366,1.366,0,0,0-.052-.436,1.381,1.381,0,0,0-.256-.443.5.5,0,0,0-.319-.18,1.009,1.009,0,0,0,.535-.436,1.514,1.514,0,0,0,.216-.811,1.67,1.67,0,0,0-.261-.881,1.643,1.643,0,0,0-1.522-.581h-2.3v5.3h.891V89.3h1.332a.908.908,0,0,1,.63.169c.321.379.179.878.236,1.3a1.641,1.641,0,0,0,.133.7h1V91.31c-.182-.075-.2-.34-.222-.608Zm-1.1-2.333a1.3,1.3,0,0,1-.759.174h-1.258V86.93c.549.007,1.1-.023,1.645.021a.737.737,0,0,1,.587.418.85.85,0,0,1-.216,1Z"/><path class="a" d="M190.556,85.9a4.453,4.453,0,1,0,.6,2.235A4.5,4.5,0,0,0,190.556,85.9Zm-.535,4.178a3.8,3.8,0,0,1-6.581,0,3.795,3.795,0,0,1,5.19-5.179,3.789,3.789,0,0,1,1.391,5.179Z" transform="translate(28.751 0.677)"/></g></svg>