<svg xmlns="http://www.w3.org/2000/svg" width="317.617" height="67.808" viewBox="0 0 317.617 67.808"><defs><style>.a{fill:#fff;}</style></defs><path class="a" d="M516.3,54.576V48.991h-6.936V40.307l-.234.072-6.515,1.993-.128.039v6.58H492.208V45.325a5.822,5.822,0,0,1,1.134-3.884,4,4,0,0,1,3.178-1.3,7.4,7.4,0,0,1,3.014.686l.256.114V35.061l-.12-.044a11.751,11.751,0,0,0-3.853-.515,11.292,11.292,0,0,0-5.465,1.313,9.342,9.342,0,0,0-3.75,3.707,11.051,11.051,0,0,0-1.328,5.439v4.03h-4.83v5.586h4.83V78.108h6.934V54.576h10.283V69.53c0,6.159,2.9,9.28,8.634,9.28a14.164,14.164,0,0,0,2.944-.326,8.133,8.133,0,0,0,2.144-.68l.091-.054V72.112l-.282.187a4.856,4.856,0,0,1-1.394.608,5.3,5.3,0,0,1-1.37.233,3.714,3.714,0,0,1-2.951-1.075,5.79,5.79,0,0,1-.939-3.741V54.576ZM464.959,73.141a7.355,7.355,0,0,1-5.9-2.478,10.525,10.525,0,0,1-2.12-7c0-3.088.713-5.5,2.12-7.185a7.239,7.239,0,0,1,5.842-2.518,7.128,7.128,0,0,1,5.689,2.408c1.378,1.606,2.077,4,2.077,7.127,0,3.162-.658,5.591-1.954,7.215a6.954,6.954,0,0,1-5.755,2.432m.308-24.852c-4.8,0-8.615,1.407-11.334,4.182s-4.1,6.615-4.1,11.415c0,4.559,1.345,8.226,4,10.9s6.263,4.026,10.729,4.026c4.654,0,8.392-1.427,11.11-4.24s4.094-6.614,4.094-11.3c0-4.63-1.292-8.325-3.841-10.978s-6.138-4-10.661-4m-26.608,0a12.535,12.535,0,0,0-8.031,2.483,7.921,7.921,0,0,0-3.13,6.46,9.038,9.038,0,0,0,.675,3.611,7.253,7.253,0,0,0,2.072,2.707,18.032,18.032,0,0,0,4.215,2.358,31.4,31.4,0,0,1,3.505,1.633,4.873,4.873,0,0,1,1.543,1.267,2.845,2.845,0,0,1,.429,1.651c0,1.956-1.465,2.908-4.479,2.908a12.314,12.314,0,0,1-3.791-.694,14.24,14.24,0,0,1-3.882-1.968L427.5,70.5v6.676l.106.049a17.175,17.175,0,0,0,3.676,1.135,19.717,19.717,0,0,0,3.926.454c3.544,0,6.4-.839,8.481-2.5a8.075,8.075,0,0,0,3.158-6.613,7.606,7.606,0,0,0-1.7-5,14.561,14.561,0,0,0-5.772-3.675,14.881,14.881,0,0,1-4.112-2.138,2.992,2.992,0,0,1-.829-2.243,2.5,2.5,0,0,1,1.052-2.075,4.729,4.729,0,0,1,2.951-.833,12.079,12.079,0,0,1,3.513.54,11.288,11.288,0,0,1,3.068,1.423l.283.194V49.558l-.109-.047a15.127,15.127,0,0,0-3.115-.869,19.015,19.015,0,0,0-3.415-.354M409.423,73.141a7.355,7.355,0,0,1-5.9-2.478,10.522,10.522,0,0,1-2.119-7c0-3.088.713-5.5,2.12-7.185a7.234,7.234,0,0,1,5.842-2.518,7.129,7.129,0,0,1,5.688,2.408c1.378,1.606,2.077,4,2.077,7.127,0,3.162-.658,5.591-1.954,7.215a6.953,6.953,0,0,1-5.755,2.432m.309-24.852c-4.8,0-8.616,1.407-11.334,4.182s-4.1,6.615-4.1,11.415c0,4.561,1.346,8.226,4,10.9s6.263,4.026,10.729,4.026c4.654,0,8.392-1.427,11.11-4.24s4.094-6.614,4.094-11.3c0-4.63-1.292-8.325-3.842-10.978s-6.138-4-10.66-4m-25.955,5.744V48.991h-6.849V78.107h6.849V63.213a10.381,10.381,0,0,1,1.707-6.185,5.236,5.236,0,0,1,4.43-2.34,8.043,8.043,0,0,1,2.059.3,5.21,5.21,0,0,1,1.6.646l.288.209V48.941l-.111-.048a7.09,7.09,0,0,0-2.682-.408,7.018,7.018,0,0,0-4.581,1.642,9.277,9.277,0,0,0-2.635,3.906Zm-19.115-5.744a16.907,16.907,0,0,0-8.329,2,13.49,13.49,0,0,0-5.493,5.649,17.99,17.99,0,0,0-1.887,8.368,15.437,15.437,0,0,0,1.834,7.5,12.886,12.886,0,0,0,5.125,5.182,15.257,15.257,0,0,0,7.488,1.82,16.4,16.4,0,0,0,8.262-1.934l.09-.052V70.55l-.288.21a12.875,12.875,0,0,1-3.351,1.745,10.126,10.126,0,0,1-3.282.636,8.434,8.434,0,0,1-6.411-2.5,9.721,9.721,0,0,1-2.365-6.924,10.083,10.083,0,0,1,2.465-7.107,8.388,8.388,0,0,1,6.424-2.651,11,11,0,0,1,6.52,2.268l.287.209V49.824l-.093-.052a11.3,11.3,0,0,0-3.169-1.072,18.928,18.928,0,0,0-3.829-.411m-20.426.7h-6.849V78.107h6.849V48.991Zm-3.355-12.4a4.126,4.126,0,0,0-2.918,1.144,3.775,3.775,0,0,0-1.223,2.856,3.669,3.669,0,0,0,1.21,2.8,4.172,4.172,0,0,0,2.931,1.115,4.224,4.224,0,0,0,2.944-1.114,3.654,3.654,0,0,0,1.225-2.8,3.847,3.847,0,0,0-1.192-2.825,4.086,4.086,0,0,0-2.978-1.175M323.792,46.843V78.107h6.99V37.478h-9.674l-12.3,30.178L296.878,37.478H286.81V78.107h6.569V46.84h.226l12.6,31.268h4.957l12.4-31.265h.225Z" transform="translate(-198.689 -23.901)"/><path class="a" d="M32.22,32.22H0V0H32.22Z"/><path class="a" d="M148.008,32.22h-32.22V0h32.22Z" transform="translate(-80.213)"/><path class="a" d="M32.219,148.048H0v-32.22H32.219Z" transform="translate(0 -80.24)"/><path class="a" d="M148.008,148.048h-32.22v-32.22h32.22Z" transform="translate(-80.213 -80.24)"/></svg>