<svg xmlns="http://www.w3.org/2000/svg" width="248.001" height="40.499" viewBox="0 0 248.001 40.499"><defs><style>.a{fill:#fff;}</style></defs><g transform="translate(-11.105 -23.3)"><path class="a" d="M38.554,65.9C39.609,71.879,39.491,72,34.1,72c-4.1,0-8.2.117-12.305,0-2.227,0-3.281.7-3.281,3.164.117,8.789-.586,7.031,6.914,7.149,4.1.117,8.2,0,12.188,0C39.257,87.7,38.788,88.4,33.749,88.4c-3.984,0-7.969.117-11.953,0-2.227,0-3.281.7-3.281,3.164.117,8.907-.586,7.031,6.914,7.266,4.1.117,8.2,0,12.305.117a5.272,5.272,0,0,1,.938.234v5.977H14.53c-1.875,0-2.93-.586-2.93-2.7,0-11.25,0-22.5.117-33.751a3.671,3.671,0,0,1,2.109-2.578C22.03,65.786,30.233,65.9,38.554,65.9ZM66.8,102.584c-8.907,4.453-16.172,3.281-21.212-3.047a14.941,14.941,0,0,1-.234-18.047c4.8-6.328,12.657-7.735,20.977-4.688,2.578-.352,5.156-.7,8.2-1.055V91.568c0,2.93.117,5.86,0,8.789-.117,1.406-.7,3.867-1.289,3.867C70.9,104.576,68.086,105.982,66.8,102.584ZM58.242,81.255A9.025,9.025,0,1,0,58.476,99.3,9.22,9.22,0,0,0,67.383,90.4,9.557,9.557,0,0,0,58.242,81.255Z" transform="translate(129.425 -41.679)"/><path class="a" d="M48.132,23.3H53.64V35.839c4.453-.82,8.672-2.109,12.891-2.109,4.57,0,8.321,2.7,10.782,6.8,3.516,5.977,2.227,14.063-2.93,19.1-5.508,5.274-12.774,5.508-20.157.7-.938,2.93-.938,2.93-6.211,2.227C48.132,49.668,48.132,36.66,48.132,23.3ZM63.6,38.886a9.786,9.786,0,1,0,.117,19.571,9.806,9.806,0,0,0,9.61-9.961A9.678,9.678,0,0,0,63.6,38.886ZM37.233,23.417h5.508V62.676c-2.227-.234-5.274,1.992-6.094-2.578a10.889,10.889,0,0,0-1.172.586C24.928,67.6,12.388,61.856,11.451,49.316c-.7-8.438-.117-16.993-.117-25.782h6.094a33.185,33.185,0,0,1,.234,3.516c0,6.914-.234,13.829.117,20.743.352,8.555,8.086,12.891,14.766,8.555,3.633-2.344,4.57-5.977,4.688-10.078V26.816A10.988,10.988,0,0,1,37.233,23.417Z"/><path class="a" d="M115.823,83.223c-4.1.352-6.8.82-9.375-2.109-1.875-2.227-5.039-2.461-7.852-1.055A3.845,3.845,0,0,0,96.6,82.4c-.117.586,1.055,1.875,1.758,2.109a60.337,60.337,0,0,0,6.563,1.875c2.461.7,5.156,1.055,7.5,2.109,4.57,2.344,5.391,7.617,1.875,11.485-5.274,5.86-18.868,5.508-23.673-.7A22.48,22.48,0,0,1,88.4,94.825c3.633-.352,6.446-1.172,8.907,1.875,1.875,2.344,6.914,2.7,9.61,1.289a3.839,3.839,0,0,0,1.875-2.461A3.155,3.155,0,0,0,106.8,93.3c-2.344-.7-4.8-1.055-7.266-1.641a26.256,26.256,0,0,1-5.86-1.875c-5.508-2.7-6.328-8.672-1.875-12.891,5.274-4.8,16.524-4.453,21.212.938C114.065,79.121,114.651,81,115.823,83.223Z" transform="translate(142.628 -40.366)"/><path class="a" d="M100.7,49.034H78.086c1.641,8.672,9.727,10.313,17.579,3.75a41.637,41.637,0,0,0,3.633,2.7c-2.7,5.742-10.9,8.2-18.282,5.508s-11.25-10.43-9.024-18.282c1.992-7.383,10.078-12.188,17.93-10.664C97.188,33.448,101.524,40.01,100.7,49.034Zm-6.211-4.8c-.938-4.688-4.336-7.149-8.907-6.914A7.427,7.427,0,0,0,78.2,44.229Z" transform="translate(10.359 1.454)"/><path class="a" d="M68.5,81.411V76.489c1.523-1.758,4.8.938,5.274-2.461a56.9,56.9,0,0,0,0-6.328h6.68c.352,2.7-.234,5.977,1.172,7.5,1.289,1.289,4.688.586,7.266.82v5.391c-1.641.117-3.4.234-5.039.234-2.227-.117-3.281.7-3.164,3.164.117,2.93,0,5.86,0,8.789,0,3.984.586,4.453,4.57,4.57,1.055,0,2.227.117,3.281.117,1.289,5.86,1.172,6.094-4.57,5.86-2.578-.117-5.391-.234-7.383-1.523-1.523-.938-2.461-3.75-2.7-5.742a72.123,72.123,0,0,1-.117-11.25c.117-2.7-.352-4.453-3.633-4.1C69.789,81.763,69.2,81.529,68.5,81.411Z" transform="translate(139.207 -41.367)"/><path class="a" d="M114.514,31.6v6.328c-.586.117-1.289.234-1.875.352-4.8.352-6.68,2.227-6.8,7.149-.117,5.274,0,10.547,0,16.055H100.1V33.006c2.227.117,4.922-1.992,6.094,1.406A76.331,76.331,0,0,1,114.514,31.6Z" transform="translate(15.299 1.427)"/></g></svg>