<svg xmlns="http://www.w3.org/2000/svg" width="327.551" height="54.872" viewBox="0 0 327.551 54.872"><defs><style>.a{fill:#fff;fill-rule:evenodd;}</style></defs><g transform="translate(-8.504 -81.657)"><path class="a" d="M45.714,94.338H35.169v24.534l10.545-10.543V94.338ZM21.181,81.659V92.213H45.714L35.169,81.659H21.181Zm11.861,37.213V108.329H8.5l10.553,10.543ZM8.511,106.2H19.057V81.657L8.511,92.2v14Zm72.845,8.75c0,1.394-.773,3.455-4.466,3.455H72.438v-6.573H76.89c3.692,0,4.466,1.75,4.466,3.118Zm-4.9-6.639H66.211v21.129h6.227v-7.489h5.328c6.143,0,9.813-2.989,9.813-6.916C87.579,110.681,84.344,108.316,76.458,108.316Zm191.463,4.438a8.663,8.663,0,0,0-5.752,2.039h-.08v-6.475h-5.22v21.129h5.22v-11.2a5.57,5.57,0,0,1,4.27-1.918c3.731,0,3.793,2.395,3.793,5.519v7.6h5.224v-9.3C275.376,116.531,274.4,112.754,267.921,112.754Zm-48.1,0a8.962,8.962,0,0,0-5.878,2.039h-.08v-1.7h-5.144v16.351h5.224v-11.2a5.575,5.575,0,0,1,4.27-1.918c3.731,0,3.789,2.395,3.789,5.519v7.6h5.228v-9.3C227.228,116.528,226.307,112.754,219.821,112.754ZM252.994,125.4a26.816,26.816,0,0,1-6.778.882c-5.476,0-8.758-2.967-8.758-7.313,0-4.281,3.381-7.306,8.215-7.5a20,20,0,0,1,5.752.652l2.253-3.228a34.712,34.712,0,0,0-8.372-.889c-8.944,0-14.287,4.5-14.287,10.964,0,7.494,7.149,10.694,14.33,10.884a34.35,34.35,0,0,0,7.645-.809Zm-146.256-2.054-5.392-15.033H91.415v21.131h6.011V112.72h.352l6.147,16.727h5.63l6.137-16.727h.362v16.727h6.022V108.316h-9.895l-5.442,15.033Zm34.515-2.093c0,3.189-1.651,5.369-5.092,5.369s-5.1-2.181-5.1-5.369,1.67-5.392,5.1-5.392S141.253,118.058,141.253,121.256Zm5.563,0c0-5.82-4.665-8.715-10.655-8.715s-10.657,2.894-10.657,8.715c0,5.794,4.672,8.7,10.657,8.7S146.816,127.052,146.816,121.256Zm31.525-8.165v1.569h-.076c-1.131-1.122-2.9-1.907-6-1.907-6.065,0-8.7,4.415-8.7,8.417,0,4.71,2.712,8.256,8.338,8.448a8.631,8.631,0,0,0,6.134-2.127h.073v.684c0,2.524-.982,4.976-6.106,4.976a14.947,14.947,0,0,1-6.506-1.39v3.789a22.719,22.719,0,0,0,7.28.978c8.5,0,10.5-4.616,10.5-9.017V113.091h-4.93Zm-4.857,13.069c-3.032,0-4.49-2.428-4.49-4.918s1.185-5.136,4.672-5.136c3.075,0,4.464,2.261,4.464,5.041,0,2.371-1.245,5.013-4.646,5.013Zm31.052-7c0-4.208-2.613-6.408-8.566-6.408a29.384,29.384,0,0,0-7.185.874v3.269a18.68,18.68,0,0,1,6.035-1.031c2.635,0,4.659.335,4.659,3.618h-2.566a26.2,26.2,0,0,0-6.818.753c-1.894.63-3.7,1.979-3.7,4.369,0,3.843,3.36,5.228,7.138,5.228,2.788,0,4.747-.622,6.173-2.028h.076v1.642h4.751Zm-5.056,5.888a8.332,8.332,0,0,1-4.859,1.7c-1.787.054-3.025-.513-3.025-2.214,0-2,2.9-2.337,6.083-2.337h1.8v2.855Zm97.152-5.888c0-4.208-2.609-6.408-8.577-6.408a29.55,29.55,0,0,0-7.185.874v3.269a18.825,18.825,0,0,1,6.042-1.031c2.65,0,4.667.335,4.667,3.618h-2.551a26.426,26.426,0,0,0-6.844.753c-1.879.63-3.688,1.979-3.688,4.369,0,3.843,3.353,5.228,7.127,5.228,2.8,0,4.766-.622,6.176-2.028h.084v1.642h4.747V119.159Zm-5.053,5.888a8.35,8.35,0,0,1-4.877,1.7c-1.772.054-3.021-.513-3.021-2.214,0-2,2.9-2.337,6.1-2.337h1.8v2.855Zm-236.8-16.731v12.845c0,2.9-1.329,4.689-4.3,4.732a22.755,22.755,0,0,1-4.749-.427v4.011a40.623,40.623,0,0,0,5.729.352c5.917,0,9.548-3.131,9.548-7.968V108.314h-6.23ZM327.2,115.844a3.793,3.793,0,0,1,4.052,3.105,3.268,3.268,0,0,1,.08.8h-8.678a4.228,4.228,0,0,1,4.546-3.906Zm6.866,9.895a18.051,18.051,0,0,1-5.45.805c-3.381,0-5.69-1.264-5.962-3.9H336a13.593,13.593,0,0,0-.007-2.523c-.386-4.147-2.926-7.367-9.089-7.367-6.32,0-9.14,4.2-9.14,8.666,0,6.039,4.473,8.413,10.426,8.413a21.636,21.636,0,0,0,5.882-.786ZM308.3,112.754c-4,0-8.02,1.271-8.02,5.03,0,3.2,2.686,4.193,5.707,5,3.215.859,4.346,1.088,4.4,2.2.065,1.176-1.1,1.758-3.921,1.758a17,17,0,0,1-5.966-1.169v3.457a24.977,24.977,0,0,0,6.633.8c4.518,0,8.555-1.282,8.555-5.179,0-3.2-2.291-4.419-6-5.278-2.708-.637-4.227-.895-4.227-2.031,0-1.165,1.368-1.592,3.629-1.592a15.12,15.12,0,0,1,4.469.79l1.936-2.77a24.056,24.056,0,0,0-7.2-1.019Zm-147.616,0c-2.222,0-4.3.572-5.586,2.829h-.078V113.1h-4.972v16.351h5.407v-7.99a6.565,6.565,0,0,1,.643-3.338,3.4,3.4,0,0,1,2.745-1.748,4.262,4.262,0,0,1,2.5.412l2.423-3.457a7.94,7.94,0,0,0-3.079-.572Z"/></g></svg>