<svg xmlns="http://www.w3.org/2000/svg" width="171.602" height="52.468" viewBox="0 0 171.602 52.468"><defs><style>.a,.b{fill:#1673b0;}.b{font-size:30px;font-family:SulphurPoint-Bold, Sulphur Point;font-weight:700;}</style></defs><g transform="translate(-6703.493 -7047.53)"><g transform="translate(6703.493 7047.53)"><path class="a" d="M6734.072,7078.65a26.927,26.927,0,0,0,.562-3.187,11.944,11.944,0,0,0-3.975-10.132,11.108,11.108,0,0,0-6.764-3.061,11.83,11.83,0,0,0-11.7,6.046,11.345,11.345,0,0,0-1.622,5.822c-.1,4.818-.015,9.638-.045,14.456,0,.141.1.324-.082.407-.159.072-.283-.076-.4-.161a14.9,14.9,0,0,1-3.809-4.27,19.16,19.16,0,0,1-2.557-7.615,19.219,19.219,0,0,1,10.87-19.974,18.946,18.946,0,0,1,6.618-1.544,23.049,23.049,0,0,1,5.205.2,16.972,16.972,0,0,1,8.736,4.223,26.1,26.1,0,0,1,5.548,7.69c.124.244.23.7.461.644.259-.065.1-.5.1-.768q.015-9.574.007-19.144c0-.621.2-.785.823-.748a55.122,55.122,0,0,0,5.667.011c.529-.022.727.14.727.7q0,5.358,0,10.719c0,.59,0,.59.531.385a.991.991,0,0,1-.2.393c-1.021,1.329-2.025,2.67-3.051,4q-5.131,6.642-10.282,13.27A8.165,8.165,0,0,1,6734.072,7078.65Z" transform="translate(-6703.493 -7047.53)"/><path class="a" d="M6814.387,7104.262c0-2.579,0-5.162,0-7.742a1.619,1.619,0,0,0-.959-1.549,24.248,24.248,0,0,0-3.649-1.491,17.831,17.831,0,0,0-9.229-.508,20.994,20.994,0,0,0-7.835,3.661,1.015,1.015,0,0,1-.194.393c-1.021,1.329-2.024,2.67-3.051,4q-5.131,6.643-10.283,13.271a8.4,8.4,0,0,1-1.376,1.64c-.254.54-.48,1.093-.763,1.617a11.693,11.693,0,0,1-7.95,6.144,11.951,11.951,0,0,1-7.765-.8,15.542,15.542,0,0,1-4.421-3.271c-.123-.118-.226-.356-.422-.269s-.081.325-.082.493c-.02,2.021.119,4.041-.028,6.067-.14,1.931.351,2.674,2.116,3.421a19.057,19.057,0,0,0,8.776,1.541,20.254,20.254,0,0,0,7.444-2.045c1.166-.555,2.245-1.261,3.362-1.9a.531.531,0,0,1,.213-.09c.035-.046.069-.095.1-.142a.731.731,0,0,0-.114-.111c-.081-.064.059-.21.131-.3q3.561-4.607,7.116-9.217,3.129-4.058,6.257-8.12c.144-.186.313-.349.536-.6,0,.1-.011.19-.022.282.079-.114.155-.228.231-.338a8,8,0,0,1,.648-1.609c2.033-3.789,5.009-6.34,9.369-7.032a11.179,11.179,0,0,1,8.856,2.188,17.4,17.4,0,0,1,2.6,2.539c.08.095.159.218.285.188C6814.463,7104.532,6814.387,7104.37,6814.387,7104.262Z" transform="translate(-6747.234 -7084.81)"/><path class="a" d="M6896.969,7134.424a4.634,4.634,0,0,0-.081,1.86,11.431,11.431,0,0,0,2.258,6.16,12.382,12.382,0,0,0,5.471,4.308,10.937,10.937,0,0,0,4.643.855,12.272,12.272,0,0,0,10.952-6.976,11.78,11.78,0,0,0,1.224-4.478c.086-1.034.059-2.067.062-3.1.013-3.828.006-7.656.006-11.486,0-.472.022-.491.419-.261a9.057,9.057,0,0,1,2.563,2.488,18.247,18.247,0,0,1,2.761,5.467,19.452,19.452,0,0,1,.96,4.285,19.124,19.124,0,0,1-3.689,13.339,18.573,18.573,0,0,1-7.759,6.157,19.407,19.407,0,0,1-20.748-3.689,24.978,24.978,0,0,1-5.085-7.132c-.062-.121-.056-.361-.258-.3s-.124.282-.124.438q0,6.081,0,12.16v5.722c0,.569-.108.7-.682.684-1.921-.04-3.842-.046-5.764,0-.547.013-.67-.117-.663-.659.018-1.395.063-2.788.061-4.184,0-1.561-.022-3.119-.075-4.678-.015-.381.266-.824-.171-1.166-.082-.064.058-.209.131-.3q3.561-4.607,7.115-9.216,3.13-4.058,6.258-8.12c.144-.186.313-.35.535-.6a20.318,20.318,0,0,0-.314,2.2C6896.974,7134.271,6896.971,7134.348,6896.969,7134.424Z" transform="translate(-6852.2 -7108.451)"/></g><text class="b" transform="translate(6788.095 7081.701)"><tspan x="0" y="0">QuadB</tspan></text></g></svg>