<?xml version="1.0" encoding="utf-8"?>
<!-- Generator: Adobe Illustrator 24.0.1, SVG Export Plug-In . SVG Version: 6.00 Build 0)  -->
<svg version="1.1" id="Layer_1" xmlns="http://www.w3.org/2000/svg" xmlns:xlink="http://www.w3.org/1999/xlink" x="0px" y="0px"
	 viewBox="0 0 1000 1000" style="enable-background:new 0 0 1000 1000;" xml:space="preserve">
<style type="text/css">
	.st0{fill:#FFFFFF;}
</style>
<g>
	<path class="st0" d="M442.08,539.14c1.7-8.45,3.82-16.83,4.49-25.46c2.47-32.11-8.24-59.15-31.76-80.98
		c-15.22-14.11-33.41-22.85-54.05-24.46c-40.86-3.19-72.12,13.51-93.53,48.31c-8.72,14.17-12.63,29.92-12.96,46.54
		c-0.77,38.51-0.13,77.02-0.35,115.54c-0.01,1.12,0.78,2.6-0.66,3.25c-1.27,0.58-2.27-0.6-3.17-1.28
		c-12.49-9.28-22.37-20.92-30.45-34.14c-11.44-18.72-17.6-39.26-20.43-60.86c-5.43-41.49,3.81-79.2,29.29-112.72
		c15.43-20.3,34.1-36.53,57.59-46.93c16.86-7.47,34.58-11.26,52.89-12.33c13.9-0.82,27.79-0.75,41.6,1.58
		c26.56,4.49,49.84,15.66,69.82,33.75c19.15,17.35,32.69,38.71,44.35,61.46c1,1.95,1.83,5.61,3.68,5.14c2.08-0.52,0.8-4,0.81-6.14
		c0.07-51,0.05-102,0.05-153c0-4.97,1.61-6.27,6.59-5.98c15.09,0.89,30.19,0.75,45.28,0.09c4.23-0.18,5.81,1.11,5.81,5.62
		c0,28.56,0,57.12-0.01,85.68c0,4.7-0.01,4.7,4.25,3.08c-0.28,1.17-0.81,2.16-1.56,3.14c-8.15,10.63-16.19,21.35-24.38,31.94
		c-27.35,35.38-54.7,70.76-82.18,106.05C449.58,530.52,446.7,535.58,442.08,539.14z"/>
	<path class="st0" d="M734.39,445.9c0.02-20.63-0.02-41.26,0.02-61.89c0.01-5.79-2.64-9.83-7.68-12.38
		c-9.39-4.77-19.11-8.73-29.16-11.93c-24.26-7.71-48.86-9.31-73.76-4.05c-23.09,4.88-43.54,15.67-62.62,29.26
		c-0.28,1.17-0.81,2.16-1.56,3.14c-8.15,10.63-16.19,21.35-24.38,31.94c-27.35,35.38-54.7,70.76-82.18,106.05
		c-3.49,4.49-6.37,9.55-10.99,13.1c-2.02,4.31-3.85,8.73-6.1,12.92c-13.83,25.85-34.92,42.36-63.55,49.11
		c-21.43,5.05-42.02,2.49-62.06-6.36c-13.78-6.08-24.69-15.89-35.33-26.14c-0.98-0.95-1.8-2.85-3.36-2.15
		c-1.53,0.69-0.64,2.6-0.66,3.95c-0.16,16.16,0.95,32.3-0.23,48.49c-1.12,15.43,2.8,21.37,16.92,27.34
		c22.39,9.46,45.69,13.93,70.14,12.32c21.01-1.38,40.62-7.35,59.49-16.34c9.32-4.44,17.95-10.09,26.88-15.21
		c0.72-0.41,1.29-0.71,1.71-0.72c0.27-0.38,0.55-0.75,0.83-1.13c-0.25-0.31-0.54-0.61-0.91-0.9c-0.65-0.51,0.47-1.67,1.05-2.43
		c18.97-24.55,37.93-49.1,56.87-73.66c16.68-21.63,33.33-43.27,50.02-64.89c1.14-1.48,2.5-2.79,4.28-4.76
		c-0.02,0.77-0.09,1.52-0.18,2.25c0.63-0.91,1.24-1.81,1.85-2.69c1.28-4.44,2.97-8.75,5.19-12.88
		c16.26-30.28,40.03-50.66,74.88-56.2c26.05-4.14,49.72,1.51,70.79,17.49c7.77,5.89,14.46,12.93,20.82,20.3
		c0.64,0.74,1.26,1.74,2.27,1.5C734.99,448.04,734.38,446.75,734.39,445.9z"/>
	<path class="st0" d="M555.48,498c-1.73,4.88-0.94,9.95-0.64,14.87c1.11,18.16,7.33,34.61,18.04,49.24
		c11.34,15.49,25.7,27.22,43.72,34.42c11.98,4.79,24.34,7.49,37.11,6.84c39.59-2.03,69.2-20.35,87.52-55.75
		c5.74-11.1,8.73-23.18,9.78-35.78c0.69-8.28,0.48-16.53,0.5-24.79c0.09-30.6,0.04-61.2,0.04-91.8c0-3.78,0.18-3.93,3.35-2.09
		c8.49,4.91,14.66,12.28,20.49,19.9c10.07,13.16,16.89,28,22.06,43.69c3.68,11.18,6.59,22.57,7.68,34.25
		c1.11,12.03,1.09,24.15-0.66,36.2c-3.74,25.88-13.34,49.37-28.82,70.4c-16.2,22-36.86,38.41-62.02,49.2
		c-25.29,10.85-51.76,14.14-78.8,10.99c-33.28-3.88-62.26-17.64-87.01-40.48c-17.59-16.23-29.83-36.06-40.65-57.01
		c-0.5-0.97-0.45-2.89-2.06-2.43c-1.55,0.45-1,2.24-1,3.5c-0.01,32.4,0.01,64.8,0.02,97.2c0.01,15.24,0.01,30.48,0,45.72
		c0,4.56-0.87,5.56-5.45,5.46c-15.35-0.32-30.71-0.36-46.06,0c-4.37,0.1-5.35-0.94-5.3-5.27c0.13-11.14,0.49-22.28,0.49-33.43
		c-0.01-12.47-0.17-24.94-0.61-37.39c-0.11-3.06,2.13-6.59-1.36-9.33c-0.65-0.51,0.47-1.67,1.05-2.43
		c18.97-24.55,37.93-49.1,56.87-73.66c16.68-21.63,33.33-43.27,50.02-64.89c1.14-1.48,2.5-2.79,4.28-4.76
		c-0.21,6.53-3.06,11.83-2.52,17.57C555.53,496.77,555.51,497.39,555.48,498z"/>
</g>
</svg>
